<?xml version="1.0" encoding="UTF-8" standalone="no"?>
<svg
   height="50.064999"
   viewBox="0 -960 533.93372 1001.3"
   width="26.696686"
   fill="#5f6368"
   version="1.1"
   id="svg1"
   sodipodi:docname="sdr_pmr446.svg"
   inkscape:version="1.4 (1:1.4+202410161351+e7c3feb100)"
   xmlns:inkscape="http://www.inkscape.org/namespaces/inkscape"
   xmlns:sodipodi="http://sodipodi.sourceforge.net/DTD/sodipodi-0.dtd"
   xmlns="http://www.w3.org/2000/svg"
   xmlns:svg="http://www.w3.org/2000/svg">
  <defs
     id="defs1">
    <inkscape:path-effect
       effect="tiling"
       id="path-effect5"
       is_visible="true"
       lpeversion="1.3.1"
       unit="px"
       seed="1;1"
       lpesatellites=""
       num_rows="4"
       num_cols="3"
       gapx="6"
       gapy="5"
       offset="0"
       offset_type="false"
       scale="0"
       rotate="0"
       mirrorrowsx="false"
       mirrorrowsy="false"
       mirrorcolsx="false"
       mirrorcolsy="false"
       mirrortrans="false"
       shrink_interp="false"
       split_items="false"
       link_styles="false"
       interpolate_scalex="false"
       interpolate_scaley="true"
       interpolate_rotatex="false"
       interpolate_rotatey="true"
       random_scale="false"
       random_rotate="false"
       random_gap_y="false"
       random_gap_x="false"
       transformorigin="" />
  </defs>
  <sodipodi:namedview
     id="namedview1"
     pagecolor="#ffffff"
     bordercolor="#000000"
     borderopacity="0.25"
     inkscape:showpageshadow="2"
     inkscape:pageopacity="0.0"
     inkscape:pagecheckerboard="0"
     inkscape:deskcolor="#d1d1d1"
     inkscape:zoom="11.313709"
     inkscape:cx="16.793785"
     inkscape:cy="27.488775"
     inkscape:window-width="1920"
     inkscape:window-height="1029"
     inkscape:window-x="0"
     inkscape:window-y="0"
     inkscape:window-maximized="1"
     inkscape:current-layer="svg1" />
  <path
     id="path1"
     style="fill:#ffffff;fill-opacity:0.313613;stroke:none;stroke-width:31.62;stroke-linecap:round;stroke-linejoin:round;stroke-dasharray:none;stroke-opacity:1"
     d="m 125.4125,-944.19 c -19.58686,0 -35.351563,18.7242 -35.351563,41.99224 v 136.52342 h 70.703123 v -136.52342 c 0,-23.26804 -15.7647,-41.99224 -35.35156,-41.99224 z" />
  <rect
     style="fill:#ffffff;fill-opacity:0.313613;stroke:none;stroke-width:41.62;stroke-linecap:round;stroke-linejoin:round;stroke-dasharray:none;stroke-opacity:1"
     id="rect1"
     width="492.31433"
     height="781.31799"
     x="20.809999"
     y="-760.82684"
     rx="42"
     ry="42" />
  <rect
     style="fill:#162d50;fill-opacity:0.313613;stroke:#162d50;stroke-width:41.62;stroke-linecap:round;stroke-linejoin:round;stroke-dasharray:none;stroke-opacity:1"
     id="rect4"
     width="492.31433"
     height="781.31799"
     x="20.809999"
     y="-760.82684"
     rx="42"
     ry="42" />
  <path
     style="fill:#162d50;fill-opacity:0.313613;stroke:#162d50;stroke-width:41.62;stroke-linecap:round;stroke-linejoin:round;stroke-dasharray:none;stroke-opacity:1"
     d="m 344.45202,-511.37224 h 33.60508 m 120,0 h 33.60508 m 120,0 h 33.60508 m -340.81524,100 h 33.60508 m 120,0 h 33.60508 m 120,0 h 33.60508 m -340.81524,100 h 33.60508 m 120,0 h 33.60508 m 120,0 h 33.60508 m -340.81524,100 h 33.60508 m 120,0 h 33.60508 m 120,0 h 33.60508"
     id="path5"
     transform="translate(-247.89247,107.72184)" />
  <rect
     style="fill:#162d50;fill-opacity:0.313613;stroke:#162d50;stroke-width:31.62;stroke-linecap:round;stroke-linejoin:round;stroke-dasharray:none;stroke-opacity:1"
     id="rect6"
     width="388.75"
     height="245.05202"
     x="72.592163"
     y="-712.97351"
     rx="42"
     ry="42" />
  <path
     id="rect7"
     style="fill:#162d50;fill-opacity:0.313613;stroke:#162d50;stroke-width:31.62;stroke-linecap:round;stroke-linejoin:round;stroke-dasharray:none;stroke-opacity:1"
     d="m 125.4125,-944.19 c -19.58686,0 -35.351563,18.7242 -35.351563,41.99224 v 136.52342 h 70.703123 v -136.52342 c 0,-23.26804 -15.7647,-41.99224 -35.35156,-41.99224 z" />
  <path
     style="font-weight:500;font-size:191.09px;line-height:0;font-family:Roboto;-inkscape-font-specification:'Roboto Medium';text-align:justify;letter-spacing:-3.39653px;word-spacing:0px;fill:#162d50;fill-opacity:0.313613;stroke-width:31.62;stroke-linecap:round;stroke-linejoin:round"
     d="m 123.56192,-577.52454 v 59.46622 H 103.5235 v -160.04215 h 44.11621 q 19.3256,0 30.65167,13.95972 11.40526,13.95972 11.40526,36.9328 0,23.52267 -11.16766,36.60305 -11.08845,13.08036 -31.12687,13.08036 z m 0,-22.31357 h 24.07779 q 10.69244,0 16.31587,-6.92489 5.62343,-7.03483 5.62343,-20.22512 0,-12.97043 -5.70263,-20.66477 -5.70263,-7.80425 -15.68225,-8.02409 h -24.63221 z m 106.73414,-78.26236 33.26536,122.66966 33.18617,-122.66966 h 25.89947 v 160.04215 h -19.95923 v -52.76115 l 1.98008,-70.56804 -34.05739,123.32919 h -14.33579 l -33.9782,-123.21927 1.98008,70.45812 v 52.76115 h -19.95922 v -160.04215 z m 155.52334,98.37755 h -22.33531 v 61.6646 h -20.03843 v -160.04215 h 40.55206 q 19.95923,0 30.81007,12.42085 10.85085,12.42085 10.85085,35.94353 0,16.04819 -5.62343,26.93017 -5.54423,10.77206 -15.52384,16.59777 l 25.89946,66.72087 v 1.42896 h -21.46408 z m -22.33531,-22.31357 h 20.59284 q 10.13801,0 15.84065,-7.03481 5.70263,-7.14474 5.70263,-19.45568 0,-12.86053 -5.30661,-19.89535 -5.22742,-7.03481 -15.68225,-7.25465 h -21.14726 z"
     id="text8"
     aria-label="PMR" />
</svg>
